<svg width="81" height="76" viewBox="0 0 81 76" fill="none" xmlns="http://www.w3.org/2000/svg">
<ellipse cx="11.59" cy="19.9549" rx="11.59" ry="11.4598" fill="#222222"/>
<path d="M9.3297 23.9806C9.07967 23.7462 9.04841 23.4181 9.1578 22.7305C9.20468 22.4492 9.3297 22.1366 9.51722 21.8085C9.59536 21.6678 9.62661 21.5428 9.61098 21.4647L9.54848 20.4333C9.53285 19.7301 9.5016 19.2613 9.45471 18.9956C9.40783 18.73 9.34533 18.5268 9.25156 18.3862C8.82963 17.7767 8.7515 17.2298 8.81401 15.7452L8.84526 15.3545L8.4077 15.1045C8.11079 14.9482 7.86076 14.8545 7.65761 14.8076C7.04816 14.7138 6.62623 14.7138 6.39182 14.7919C5.75111 14.9951 5.15729 14.6669 5.15729 14.1044C5.15729 13.7137 5.37607 13.448 5.79799 13.323C6.21992 13.2136 6.90751 13.2136 7.86076 13.3386C8.12642 13.3699 8.43896 13.4636 8.79838 13.6199C9.06404 13.7449 9.18906 13.6824 9.18906 13.3543C9.18906 13.2761 9.43909 12.9323 9.5641 12.8855C10.2986 12.5573 11.033 13.2761 10.6736 14.0106C10.6267 14.1044 10.6111 14.1669 10.6267 14.1981C10.6424 14.245 10.9705 14.1825 11.1581 14.12C11.2362 14.0887 11.455 14.0575 11.8144 14.0418C12.2676 14.0106 12.752 13.9481 13.299 13.8543C14.0334 13.7293 14.6116 13.87 15.0023 14.2919C15.3148 14.6044 15.393 15.0107 15.2523 15.2764C14.9867 15.7608 14.5022 15.8546 14.0178 15.4327C13.9084 15.3389 13.799 15.292 13.6896 15.3076C13.2521 15.3545 12.877 15.417 12.5489 15.4639C12.377 15.4795 12.2207 15.4952 12.0488 15.4952C11.8769 15.4952 11.705 15.5264 11.5331 15.5733C11.3143 15.6202 11.0799 15.6514 10.8143 15.6827C10.2986 15.7452 10.3298 15.7139 10.3298 16.464C10.3298 17.2298 10.3611 17.386 10.6267 17.6986C10.8143 17.9017 10.9237 18.1205 10.9705 18.3393C11.0018 18.5737 11.0487 19.23 11.0956 20.3083L11.1581 21.4022C11.2049 21.7928 11.1268 22.1523 10.9237 22.4804C10.7205 22.8086 10.6111 23.168 10.5799 23.5431C10.5174 24.1838 9.81414 24.4338 9.3297 23.9806Z" fill="white"/>
<ellipse cx="39.7186" cy="11.2303" rx="11.8505" ry="11.0691" fill="#222222"/>
<path d="M36.3901 15.9328C35.8431 15.8703 35.4837 15.7609 35.2962 15.6046L34.8274 15.2452C34.3898 14.917 33.8429 14.1826 33.7022 13.745C33.5616 13.3543 33.4835 11.1978 33.5928 10.6509C33.6397 10.4633 33.671 10.1039 33.6866 9.58823C33.7647 7.99427 34.1867 6.90038 34.9836 6.29093C35.1712 6.15029 35.1868 6.10341 35.0774 5.97839C34.6398 5.60334 34.843 4.86887 35.4525 4.66572C35.5931 4.61884 35.6869 4.58759 35.7494 4.58759C35.9213 4.58759 37.0933 4.83762 37.6559 4.97826C37.8278 5.02514 37.9528 5.02514 38.0309 4.97826C38.406 4.79074 39.5624 4.72823 39.8593 4.90013C40.4844 5.22829 40.5469 6.11903 39.9687 6.43157C39.828 6.50971 39.7655 6.57222 39.7499 6.6191C39.7499 6.75974 39.8749 6.96289 40.1406 7.22855C40.2812 7.36919 40.3906 7.52546 40.5 7.72862C40.6406 7.99427 40.9844 8.4162 41.547 8.9944C42.0314 9.49447 42.0939 9.60386 42.2815 10.354C42.3908 10.7915 42.3908 10.854 42.2189 11.4791C42.1877 11.6197 42.1564 11.7916 42.1408 12.0104C42.1096 12.3542 41.9845 12.7761 41.7814 13.2762C41.4845 13.9482 41.4063 14.0419 40.7188 14.7295C40.0312 15.4015 40.0312 15.4015 39.328 15.6046L38.6716 15.8078C37.8746 16.0578 37.5934 16.0578 36.3901 15.9328ZM37.0152 14.4951C37.5621 14.5732 37.6559 14.5576 38.4685 14.3076C39.2186 14.0732 39.1561 14.0888 39.703 13.5731C40.2499 13.0418 40.5469 12.4949 40.5937 11.9167C40.6094 11.6822 40.6562 11.4478 40.7188 11.1978C40.8594 10.6196 40.7813 10.354 40.3906 9.97891C40.2499 9.83826 40.1093 9.68199 39.9999 9.54135L39.5936 9.08817C39.4373 8.91627 39.328 8.76 39.2498 8.61936C39.1717 8.46309 39.0467 8.30682 38.906 8.15055C38.7498 7.97865 38.6247 7.80675 38.531 7.63485C38.406 7.36919 38.0622 6.94727 37.859 6.77537C37.609 6.57222 37.2339 6.63472 36.7495 6.96289C36.2026 7.32231 35.8744 7.54109 35.7962 7.61923C35.6556 7.79112 35.4525 8.16617 35.4056 8.36932C35.3743 8.50997 35.3431 8.65061 35.2962 8.79125C35.2493 8.94752 35.2337 9.19755 35.2337 9.55698C35.2337 9.88514 35.218 10.1821 35.1712 10.4321C35.1243 10.6821 35.093 10.9634 35.093 11.2603V11.651L35.0774 12.0729C35.0618 12.7761 35.1399 13.2606 35.2962 13.5262C35.5462 13.9638 36.0463 14.3701 36.3744 14.417L37.0152 14.4951Z" fill="white"/>
<ellipse cx="69.4103" cy="19.0434" rx="11.59" ry="10.5482" fill="#222222"/>
<path d="M65.9934 23.4963C65.4777 23.4025 65.2589 22.9493 65.3683 22.1211C65.4152 21.8242 65.4308 21.3085 65.4152 20.6053C65.3996 19.8708 65.384 19.4958 65.3996 19.4801C65.3996 19.4489 65.3214 19.3864 65.1496 19.3082C64.4776 19.0113 64.3369 18.2612 64.8526 17.8393C65.1027 17.6362 65.2121 17.2142 65.1964 16.5579C65.1808 16.2141 65.2277 15.8703 65.3214 15.5421C65.3996 15.214 65.4621 14.9171 65.4777 14.6826L65.5246 14.1982C65.5402 14.0732 65.5402 14.0732 65.3683 14.0576C64.4932 13.9951 64.3057 12.7918 65.1027 12.4011C65.6027 12.1667 65.7434 12.1354 66.7591 12.0729C67.6499 12.0261 68.2281 12.0417 68.4937 12.1198C69.1657 12.2917 69.697 12.4949 70.0564 12.7605C70.2283 12.8855 70.4002 12.9949 70.6034 13.1043C71.4941 13.62 71.7598 14.417 71.4004 15.4953C71.291 15.8078 71.166 16.5423 71.166 16.8548C71.166 17.058 71.1503 17.2142 71.1191 17.3392C71.0722 17.4486 71.0409 17.5893 71.0253 17.7612C70.9472 18.6207 70.4471 19.0426 69.3063 19.277C68.9938 19.3551 68.775 19.3864 68.65 19.4176C68.4156 19.4645 68.1656 19.4958 67.9155 19.4958C67.3061 19.5114 66.9779 19.5583 66.931 19.6364C66.9154 19.6677 66.8998 19.9802 66.9154 20.574C66.9467 21.8086 66.8998 22.6212 66.7748 23.0118C66.6341 23.4025 66.3841 23.5744 65.9934 23.4963ZM66.6341 18.0268C66.7435 18.0893 67.9937 18.0737 68.4312 17.9643C68.5719 17.9487 68.7594 17.9018 68.9938 17.8549C69.2907 17.7924 69.4626 17.6987 69.4782 17.558C69.4939 17.5111 69.5407 17.3549 69.5876 17.1205C69.6345 16.8861 69.6658 16.6517 69.6814 16.4485C69.7283 15.9953 69.7751 15.6515 69.8533 15.3859C70.0877 14.5889 70.0564 14.5107 69.6658 14.2763L69.1969 13.9951C68.9938 13.8388 68.7125 13.7138 68.3687 13.6044C67.7749 13.4169 67.478 13.4637 67.478 13.745C67.478 13.8232 67.4311 13.9169 67.353 14.0263C67.1342 14.3389 67.0248 14.6201 67.0248 14.8702C67.0092 15.0421 66.9935 15.1671 66.9623 15.2296C66.931 15.2921 66.9154 15.3702 66.8998 15.4484C66.8998 15.5421 66.8685 15.6671 66.8216 15.8078C66.7591 15.9641 66.7435 16.2141 66.7591 16.5735C66.7748 16.9017 66.7748 17.1517 66.7279 17.308C66.6029 17.7299 66.5716 17.9799 66.6341 18.0268Z" fill="white"/>
<ellipse cx="41.8014" cy="50.6881" rx="32.9469" ry="24.7428" fill="#222222"/>
<path d="M42.4076 33.934C42.0007 33.5272 41.3411 33.5272 40.9342 33.934L34.3043 40.564C33.8974 40.9708 33.8974 41.6305 34.3043 42.0373C34.7111 42.4442 35.3707 42.4442 35.7776 42.0373L41.6709 36.144L47.5642 42.0373C47.9711 42.4442 48.6307 42.4442 49.0375 42.0373C49.4444 41.6305 49.4444 40.9708 49.0375 40.564L42.4076 33.934ZM41.6709 66.7061L42.7127 66.7061L42.7127 34.6707L41.6709 34.6707L40.6291 34.6707L40.6291 66.7061L41.6709 66.7061Z" fill="white"/>
</svg>
