<svg width="187" height="214" viewBox="0 0 187 214" fill="none" xmlns="http://www.w3.org/2000/svg">
<mask id="path-1-inside-1_329_375" fill="white">
<path d="M187 152.869C187 225.384 140.93 220.709 75.4649 201.854C10 183 0 167.577 0 95.0616C0 22.5467 70.5 -6.50152 121.5 1.49896C172.5 9.49945 187 80.3545 187 152.869Z"/>
</mask>
<path d="M187.5 152.869C187.167 152.869 186.833 152.869 186.5 152.869C186.493 163.82 185.628 174.717 182.177 185.046C176.836 205.41 154.632 215.197 134.744 213.401C114.579 212.51 94.9528 207.12 75.52 201.663C52.4684 194.547 26.2132 188.056 12.207 166.942C-0.751389 145.543 0.556233 119.362 0.0381033 95.0616C-1.45762 56.062 26.1653 19.954 62.6479 7.70554C81.3521 0.845206 101.785 -1.51199 121.495 1.53014C173.829 12.2042 181.682 75.0495 185.548 120.182C186.264 131.055 186.545 141.967 186.5 152.869C186.833 152.869 187.167 152.869 187.5 152.869C187.453 141.947 187.087 131.018 186.29 120.131C182.077 74.944 173.939 12.0349 121.505 1.46779C101.776 -1.53395 81.3524 0.84573 62.6479 7.70554C26.169 19.9548 -1.47987 56.0323 -0.0381033 95.0616C0.453132 119.37 -0.923723 145.535 12.0342 167.053C26.069 188.298 52.3701 194.852 75.4099 202.045C94.8392 207.563 114.451 213.029 134.722 214.003C154.65 215.933 177.5 205.999 182.98 185.321C186.525 174.861 187.439 163.885 187.5 152.869ZM186.5 152.869H187.5H186.5Z" fill="black" mask="url(#path-1-inside-1_329_375)"/>
</svg>
