<svg width="20" height="20" viewBox="0 0 20 20" fill="none" xmlns="http://www.w3.org/2000/svg">
<path d="M3.75 7.1875L7.5 2.8125" stroke="#222222" stroke-linecap="round" stroke-linejoin="round"/>
<path d="M16.25 7.1875L12.5 2.8125" stroke="#222222" stroke-linecap="round" stroke-linejoin="round"/>
<path d="M15.7797 17.1875H4.21973C3.94908 17.1826 3.68802 17.0864 3.47885 16.9146C3.26967 16.7428 3.12463 16.5054 3.06723 16.2408L1.28557 8.74083C1.23787 8.56121 1.23127 8.37315 1.26625 8.19062C1.30124 8.0081 1.37691 7.83581 1.48765 7.68655C1.59839 7.5373 1.74134 7.41493 1.90589 7.32853C2.07043 7.24213 2.25233 7.19392 2.43807 7.1875H17.5614C17.7471 7.19392 17.929 7.24213 18.0936 7.32853C18.2581 7.41493 18.4011 7.5373 18.5118 7.68655C18.6226 7.83581 18.6982 8.0081 18.7332 8.19062C18.7682 8.37315 18.7616 8.56121 18.7139 8.74083L16.9322 16.2408C16.8748 16.5054 16.7298 16.7428 16.5206 16.9146C16.3114 17.0864 16.0504 17.1826 15.7797 17.1875Z" stroke="#222222" stroke-linecap="round" stroke-linejoin="round"/>
<path d="M6.25 9.6875V14.6875" stroke="#222222" stroke-linecap="round" stroke-linejoin="round"/>
<path d="M10 9.6875V14.6875" stroke="#222222" stroke-linecap="round" stroke-linejoin="round"/>
<path d="M13.75 9.6875V14.6875" stroke="#222222" stroke-linecap="round" stroke-linejoin="round"/>
</svg>
