<svg width="20" height="18" viewBox="0 0 20 18" fill="none" xmlns="http://www.w3.org/2000/svg">
<g clip-path="url(#clip0_172_691)">
<path d="M12.3878 17.8907C10.5325 17.8907 8.67719 17.8817 6.82205 17.8935C5.33053 17.903 3.83967 17.9457 2.34831 17.9559C1.92874 17.9559 1.50974 17.9247 1.09484 17.863C0.201113 17.7361 -0.154478 17.213 0.143149 16.3689C0.346672 15.8035 0.612639 15.262 0.936212 14.7542C2.30714 12.5795 4.30187 11.1673 6.69247 10.2575C7.99028 9.75333 9.36965 9.48509 10.7641 9.46567C12.8488 9.44775 14.768 9.97067 16.4068 11.3298C17.5257 12.245 18.4401 13.3796 19.0921 14.6619C19.2736 15.0203 19.4781 15.3703 19.6235 15.7427C19.7631 16.0866 19.8607 16.4457 19.9142 16.8123C19.9858 17.3616 19.6762 17.7257 19.1213 17.7948C18.7342 17.8468 18.3442 17.8757 17.9535 17.8814C16.0983 17.8898 14.243 17.8853 12.3878 17.8853V17.8907ZM18.4828 16.5501C18.49 16.4916 18.4894 16.4325 18.481 16.3742C17.8901 14.8576 17.0735 13.4869 15.812 12.4131C14.8388 11.5848 13.7471 10.9887 12.4503 10.8271C10.956 10.6409 9.47532 10.6799 8.01476 11.0866C5.25154 11.856 3.04687 13.3706 1.53713 15.8123C1.36535 16.09 1.22899 16.3891 1.07103 16.6872C1.11903 16.7131 1.16913 16.7352 1.22078 16.7531C1.73773 16.8653 2.25324 16.7993 2.77459 16.7705C3.85807 16.7105 4.94452 16.6847 6.02986 16.6791C9.58066 16.6611 13.1315 16.6624 16.6824 16.6457C17.2734 16.6426 17.8635 16.5843 18.483 16.5501H18.4828Z" fill="#222222"/>
<path d="M10.3631 0.0587123C11.7925 0.024303 12.9867 0.698574 13.8934 1.92399C14.1071 2.21292 14.365 2.48116 14.5211 2.79804C14.8699 3.50632 15.1589 4.23393 14.9735 5.06059C14.7994 5.83685 14.5725 6.58434 14.0667 7.22061C13.1673 8.35085 12.0206 9.04962 10.5551 9.22334C9.23596 9.37982 7.98166 9.18668 6.81056 8.57325C5.60437 7.94151 4.9181 6.91921 4.66895 5.60571C4.29395 3.62839 5.34065 1.85502 6.99218 0.912152C7.99158 0.341425 9.07079 0.0537727 10.3631 0.0587123ZM13.4951 4.07596C13.5606 3.57749 13.3588 3.1794 13.046 2.81664C12.9239 2.67506 12.8136 2.52319 12.6866 2.3863C12.2267 1.89084 11.7024 1.49887 11.0049 1.39514C10.0271 1.23521 9.02334 1.36526 8.1204 1.76886C6.99175 2.28182 6.1498 3.06385 5.95582 4.36421C5.72955 5.88115 6.52165 7.23868 7.93038 7.68684C8.77452 7.9476 9.66588 8.02422 10.5429 7.91139C11.7418 7.77576 13.1531 6.55778 13.3437 5.30766C13.406 4.89877 13.4453 4.48678 13.4951 4.07596Z" fill="#222222"/>
</g>
<defs>
<clipPath id="clip0_172_691">
<rect width="20" height="18" fill="white"/>
</clipPath>
</defs>
</svg>
