<svg width="334" height="72" viewBox="0 0 334 72" fill="none" xmlns="http://www.w3.org/2000/svg">
<path d="M233.928 25.5899C234.732 25.7884 235.404 25.9801 235.85 26.1886C236.185 26.29 236.49 26.3868 236.797 26.5024C237.733 26.8552 238.655 27.3673 239.59 27.8089C240.673 26.9223 241.668 26.0942 242.55 25.243C244.847 23.0266 248.01 21.4621 251.847 19.3892C258.971 15.5408 264.033 13.7112 276.537 11.9978C281.931 11.2585 285.872 10.8248 311.63 11.6221C322.953 11.9726 319.266 19.6352 319.753 21.9837C320.228 24.2789 322.483 26.6618 323.6 29.459C324.591 31.9406 326.334 34.229 327.933 36.6667C329.558 39.1452 329.223 41.4394 330.181 43.6042C331.161 45.8187 332.112 48.9958 332.911 51.801C333.091 52.432 333.075 53.1469 332.121 53.5145C327.351 55.3537 322.502 52.9847 318.486 52.2632C313.404 51.3499 309.021 49.7417 301.809 48.0337C296.429 46.7596 291.38 45.6014 286.71 44.069C281.191 42.2581 277.244 39.6557 272.589 37.8531C268.096 36.1135 261.202 34.7911 256.542 33.2588C249.663 30.9972 243.542 29.5698 239.686 27.8537C239.654 27.8388 239.622 27.8239 239.59 27.8089C237.919 29.1771 236.039 30.6848 234.043 32.6318C231.64 34.9749 230.018 37.2215 227.784 39.3882C224.9 42.1853 222.805 45.0057 220.239 47.5877C217.196 50.6497 214.395 53.0601 210.933 55.5116C207.875 57.6764 205.062 61.8246 194.688 65.1598C183.802 68.6596 170.441 71.0031 154.5 71C126.99 70.9946 119.844 70.8432 114.477 70.0946C110.62 69.5568 92.9462 68.4426 82.7001 66.7624C78.8435 66.13 75.3026 64.9483 66.157 63.3355C60.548 62.3464 54.8103 60.8654 49.9606 59.2817C46.1041 58.0223 41.7866 57.2586 38.2418 55.3144C31.2943 51.5037 23.6983 47.1901 21.4003 45.5878C18.8149 43.7852 14.5618 42.141 11.6074 39.3693C9.20487 37.1153 7.65843 35.0392 5.67094 32.7939C3.75472 30.6292 -0.197426 28.3861 1.35223 26.3078C2.15627 25.2295 3.87476 24.6362 5.85871 24.0593C10.5144 22.7053 14.8046 21.2615 18.213 19.6433C22.3969 17.6569 27.3284 15.6625 32.1851 14.3274C40.4036 12.068 47.9382 9.73695 56.0993 8.11418C61.5494 7.03045 65.3266 6.21147 70.2157 5.32243C75.6851 4.32789 80.7494 3.06155 87.3943 2.62258C94.3081 2.16585 103.894 0.959577 113.292 1.00104C134.732 1.09563 139.819 1.69971 145.502 1.9037C158.227 2.36043 169.248 3.50848 175.016 4.79003C183.59 6.69533 194.534 9.07814 198.607 10.287C204.062 11.9059 206.951 13.5804 211.766 15.4219C216.253 17.138 221.474 19.6825 225.078 22.5404C227.174 24.2022 231.27 24.9337 233.928 25.5899Z" fill="#FAE38C"/>
<path d="M235.85 26.1886C233.933 25.2913 227.808 24.7052 225.078 22.5404C221.474 19.6825 216.253 17.138 211.766 15.4219C206.951 13.5804 204.062 11.9059 198.607 10.287C194.534 9.07814 183.59 6.69533 175.016 4.79003C169.248 3.50848 158.227 2.36043 145.502 1.9037C139.819 1.69971 134.732 1.09563 113.292 1.00104C103.894 0.959577 94.3081 2.16585 87.3943 2.62258C80.7494 3.06155 75.6851 4.32789 70.2157 5.32243C65.3266 6.21147 61.5494 7.03045 56.0993 8.11418C47.9382 9.73695 40.4036 12.068 32.1851 14.3274C27.3284 15.6625 22.3969 17.6569 18.213 19.6433C14.8046 21.2615 10.5144 22.7053 5.85871 24.0593C3.87476 24.6362 2.15627 25.2295 1.35223 26.3078C-0.197426 28.3861 3.75472 30.6292 5.67094 32.7939C7.65843 35.0392 9.20487 37.1153 11.6074 39.3693C14.5618 42.141 18.8149 43.7852 21.4003 45.5879C23.6983 47.1901 31.2943 51.5037 38.2418 55.3144C41.7866 57.2586 46.1041 58.0223 49.9606 59.2817C54.8103 60.8654 60.548 62.3464 66.157 63.3355C75.3026 64.9483 78.8435 66.13 82.7001 66.7624C92.9462 68.4426 110.62 69.5568 114.477 70.0946C119.844 70.8432 126.99 70.9946 154.5 71C170.441 71.0031 183.802 68.6596 194.688 65.1598C205.062 61.8246 207.875 57.6764 210.933 55.5116C214.395 53.0601 217.196 50.6497 220.239 47.5877C222.805 45.0057 224.9 42.1853 227.784 39.3882C230.018 37.2215 231.64 34.9749 234.043 32.6318C237.333 29.4231 240.307 27.4077 242.55 25.243C244.847 23.0266 248.01 21.4621 251.847 19.3892C258.971 15.5408 264.033 13.7112 276.537 11.9978C281.931 11.2585 285.872 10.8248 311.63 11.6221C322.953 11.9726 319.266 19.6352 319.753 21.9837C320.228 24.2789 322.483 26.6618 323.6 29.459C324.591 31.9406 326.334 34.229 327.933 36.6667C329.558 39.1452 329.223 41.4394 330.181 43.6042C331.161 45.8187 332.112 48.9958 332.911 51.801C333.091 52.432 333.075 53.1469 332.121 53.5144C327.351 55.3537 322.502 52.9847 318.486 52.2632C313.404 51.3499 309.021 49.7417 301.809 48.0337C296.429 46.7596 291.38 45.6014 286.71 44.069C281.191 42.2581 277.244 39.6557 272.589 37.8531C268.096 36.1135 261.202 34.7911 256.542 33.2588C249.663 30.9972 243.542 29.5698 239.686 27.8537C238.718 27.4023 237.765 26.8672 236.797 26.5024C235.829 26.1375 234.876 25.9592 232.931 25.2349" stroke="black" stroke-width="1.23435" stroke-linecap="round"/>
<path d="M39.641 18.5092C39.0357 18.1799 38.379 14.8194 39.3418 14.6249C41.8569 14.1166 41.6307 14.9191 41.8569 15.3275C42.0831 16.3881 41.9277 18.0415 41.3132 18.4763C40.8495 18.6212 39.9792 18.6932 39.641 18.5092Z" fill="black" stroke="black" stroke-width="1.23435" stroke-linecap="round"/>
<path d="M58.0156 14.4614C58.7356 14.4614 59.6466 14.6158 60.6448 14.9656C63.131 15.8369 65.0849 20.0488 68.0087 24.8979C68.6134 25.9008 68.7396 26.9323 69.2851 29.6078C70.2834 34.5044 69.2905 37.9338 68.7478 38.7492C67.845 39.9507 66.9286 40.9755 66.1131 41.5207C65.6577 41.757 65.1177 41.9114 64.0158 42.5385" stroke="black" stroke-width="1.23435" stroke-linecap="round"/>
<path d="M269.1 19.2424C271.162 19.2424 274.459 19.3083 275.953 19.4332C276.581 19.4857 277.178 19.5247 277.945 19.591C279.159 19.696 281.419 19.79 283.862 19.9643C284.837 20.0338 285.253 20.0893 286.707 20.197C290.622 20.4871 293.341 20.6389 293.975 20.6636C295.241 20.7376 296.212 20.7885 296.583 20.8049C296.796 20.8214 297.059 20.8543 297.49 20.8882" stroke="black" stroke-width="1.23435" stroke-linecap="round"/>
<path d="M269.1 25.9629C269.162 25.9629 269.224 25.9629 272.178 25.9629C275.132 25.9629 280.977 25.9629 285.48 26.0829C289.983 26.2029 292.967 26.4429 294.691 26.5933C296.415 26.7436 296.788 26.7969 297.172 26.8519" stroke="black" stroke-width="1.23435" stroke-linecap="round"/>
<path d="M284.529 25.9629C284.759 25.9629 288.888 25.9629 295.54 26.0082C301.451 26.0484 304.202 26.3277 306.576 26.5108C307.446 26.602 308.603 26.6939 309.99 26.7625C310.576 26.7858 310.919 26.7858 311.274 26.7858" stroke="black" stroke-width="1.23435" stroke-linecap="round"/>
<path d="M284.529 32.6831C285.701 32.6831 286.872 32.6831 289.877 32.6831C292.882 32.6831 297.685 32.6831 302.633 32.6831" stroke="black" stroke-width="1.23435" stroke-linecap="round"/>
</svg>
